<svg xmlns="http://www.w3.org/2000/svg" viewBox="0 0 640 480">
  <defs>
    <clipPath id="a">
      <path d="M0 0h640v480H0z"/>
    </clipPath>
  </defs>
  <g clip-path="url(#a)">
    <path fill="#1eb53a" d="M0 320h640v160H0z"/>
    <path fill="#0099b5" d="M0 0h640v160H0z"/>
    <path fill="#fff" d="M0 160h640v160H0z"/>
    <path fill="#ce1126" d="M0 152h640v16H0zm0 160h640v16H0z"/>
    <g transform="translate(40 40)">
      <path fill="#fff" d="M64 20a24 24 0 1 0 0 48 28 28 0 1 1 0-48z"/>
      <g fill="#fff" transform="translate(120 14)">
        <circle cx="0" cy="0" r="4"/>
        <circle cx="20" cy="0" r="4"/>
        <circle cx="40" cy="0" r="4"/>
        <circle cx="60" cy="0" r="4"/>
        <circle cx="80" cy="0" r="4"/>
        <circle cx="100" cy="0" r="4"/>
        <circle cx="10" cy="16" r="4"/>
        <circle cx="30" cy="16" r="4"/>
        <circle cx="50" cy="16" r="4"/>
        <circle cx="70" cy="16" r="4"/>
        <circle cx="90" cy="16" r="4"/>
        <circle cx="110" cy="16" r="4"/>
      </g>
    </g>
  </g>
</svg>

