<svg width="167" height="44" viewBox="0 0 167 44" fill="none" xmlns="http://www.w3.org/2000/svg">
<path d="M134.53 43.3842C131.437 42.3065 127.479 42.3158 126.169 38.6925C125.769 38.6925 124.71 39.9467 124.246 40.2997C120.474 43.1334 115.736 44.4898 111.601 41.4703C110.932 40.9872 108.805 38.3859 108.508 38.4602C108.378 38.4881 107.198 40.0396 106.715 40.4391C102.608 43.7744 94.2188 43.9045 89.6107 41.554C87.6319 40.5413 86.2197 38.8318 84.4731 37.5219C82.0297 41.3217 77.3008 43.5886 72.7577 43.0962C71.4849 42.9568 69.5433 41.972 68.6793 41.9813C66.9884 41.9999 65.3997 43.4307 62.5568 43.1612C61.0517 43.0219 57.1962 41.331 56.7038 41.3496C56.1092 41.3681 55.1987 42.0464 54.5484 42.2415C47.5619 44.3504 40.7984 43.0776 35.893 37.5591C35.5214 37.494 33.9049 39.38 33.4311 39.7516C27.4851 44.3597 15.073 43.4957 7.91931 42.4366C5.54094 42.0835 2.72592 41.8141 1.30447 39.6401C-0.627954 36.695 2.14063 35.7381 2.3636 33.4433C3.10684 25.8251 1.78758 17.0084 2.3543 9.26016C2.11275 7.00256 -0.497878 5.62757 1.31377 3.06339C2.29856 1.66052 4.23098 1.47472 5.80107 1.196C13.8745 -0.216153 26.1473 -1.38676 32.855 4.2247C35.9952 6.85392 37.6768 11.2112 36.9893 15.2432C41.5881 11.6757 47.7849 10.5887 53.2384 12.7813C54.2976 13.2086 55.2452 13.9054 56.3043 14.3049V9.02789C56.3043 8.11742 54.632 6.54733 54.632 4.80071C54.6413 1.40968 60.5593 0.118294 63.2536 0.211199C68.9858 0.41559 73.1665 6.28719 72.7856 11.7221C77.0871 11.3319 81.6116 13.1993 83.8599 16.8784H84.2037C87.6411 12.7905 92.7974 11.1554 98.0837 11.7407C99.5609 11.908 101.428 12.9206 102.822 12.9113C103.909 12.9113 105.888 11.8894 107.318 11.75C109.149 11.5642 111.109 11.6478 112.818 12.3074C113.376 12.5211 115.345 13.8311 115.494 13.8032C115.624 13.7846 116.618 12.7998 117.083 12.5583C119.926 11.0997 124.812 11.4434 127.544 13.1157C126.15 10.1428 125.714 7.79226 127.07 4.67994C129.709 -1.34959 138.572 -0.717842 141.74 4.60562C142.427 5.75764 142.567 6.78889 143.087 7.95949C146.218 2.14363 160.544 3.37927 159.225 11.4806C168.747 11.0439 166.322 24.8218 157.812 23.679V27.9062C161.157 27.4603 164.241 28.7981 165.756 31.8454C166.369 33.0717 166.425 34.4281 167.001 35.6452V37.9957C166.295 40.5692 164.139 41.3403 161.807 42.0928C156.391 43.8487 150.157 43.7465 145.688 39.8724C144.545 41.8141 142.084 42.4923 139.965 42.8546C138.665 43.0776 137.16 42.9847 135.905 43.3935H134.493L134.53 43.3842ZM28.5164 19.6841C31.7588 16.9992 34.2114 13.9704 32.4741 9.52958C29.8077 2.70105 20.8517 2.69176 14.7385 3.02622C13.2985 3.10984 4.70479 4.0296 4.02658 4.55916C3.5249 4.94937 4.66765 5.98061 4.89062 6.73314C5.62457 9.11151 5.11357 12.1402 5.1879 14.6579C5.34584 20.4738 6.13553 28.1663 5.13216 33.8243C4.87202 35.2643 4.47255 36.2491 3.78505 37.5219C11.1338 38.7575 23.3416 40.6528 29.91 36.4442C36.1346 32.4586 35.317 22.6013 28.5164 19.6841ZM67.8617 17.8074C68.4377 13.7661 69.9985 6.185 65.4833 3.87166C63.5416 2.87758 60.1598 3.06339 58.2739 4.15038C57.0568 4.85646 58.2181 5.25596 58.5619 6.07352C59.7789 8.95358 58.6827 12.3353 59.3887 15.3361C58.8963 21.1892 59.7696 28.1663 59.1472 33.88C59.0171 35.0413 58.3853 36.6021 57.5027 37.4011C59.7418 38.8969 62.9377 39.5101 65.4369 38.2651C66.4867 37.7449 66.8769 37.0016 67.7316 36.3513C71.5872 41.2845 79.0196 38.4509 81.5001 33.6199C84.3523 28.0641 83.702 17.6681 77.05 15.1132C74.4672 14.1191 72.1539 14.2863 69.9799 16.0422C69.4875 16.4417 68.3727 18.1605 67.8617 17.7981V17.8074ZM130.61 4.51271C126.178 8.88854 132.319 15.4012 137.002 11.9358C142.52 7.84801 135.32 -0.141836 130.61 4.51271ZM143.839 14.5186H139.25C138.99 17.9654 140.671 19.8792 144.192 19.4426V29.6528C144.192 34.4281 147.806 38.4788 152.563 38.9155C154.616 39.1013 160.915 38.4509 162.337 36.9273C163.517 35.6638 162.197 29.1883 158.119 31.0836C156.92 31.641 155.806 33.6477 155.583 33.7221C152.823 34.6511 153.66 28.6402 153.632 27.0608C153.622 26.5033 153.381 25.9924 153.381 25.4349C153.381 23.4189 153.725 21.4586 153.622 19.4426H157.98C158.073 19.4426 159.55 18.9409 159.726 18.8387C161.129 18.049 161.185 15.94 161.157 14.5093C158.621 14.2584 156.168 14.5836 153.613 14.5093C153.567 12.8091 153.464 11.6014 154.189 10.0406C154.672 9.00002 155.871 8.80492 154.143 7.99665C149.618 5.87841 145.196 7.60645 144.248 12.5769C144.146 13.0971 144.35 14.3513 143.839 14.5093V14.5186ZM43.8364 29.7736C48.1751 29.6435 54.8735 29.402 56.7409 24.6731C58.887 19.2103 53.1734 14.8716 48.2029 14.5093C32.0003 13.3294 30.5882 37.5312 46.0754 38.9155C49.2807 39.2035 53.1176 38.7018 55.4681 36.3141C56.0441 35.7288 58.1717 32.505 56.8803 32.1241C56.6573 32.0591 53.2663 33.3412 52.393 33.4898C49.132 34.0379 44.5983 33.657 43.8271 29.7736H43.8364ZM92.3607 29.7736C97.8979 29.8851 106.761 28.7516 105.767 21.2263C104.652 12.7998 89.3321 12.0752 85.1699 20.8454C80.6919 30.2939 87.2417 39.8538 97.87 38.8876C101.661 38.5438 106.194 36.4721 105.786 32.1148C101.326 33.6756 94.4511 35.5616 92.3607 29.7643V29.7736ZM118.281 32.1241C116.841 25.8716 116.99 13.6081 107.625 14.5929C106.956 14.6672 103.658 15.299 103.909 16.2838C104.113 16.5625 104.494 16.6368 104.708 16.897C108.981 22.0439 107.374 38.1815 115.327 38.934C121.802 39.5379 128.891 28.603 129.114 22.8707C129.263 19.1267 126.986 15.1318 123.038 14.5929C122.23 14.4814 118.226 14.5465 118.04 15.364C117.993 15.5498 119.628 17.9932 119.87 18.69C121.041 22.0996 120.297 27.5717 119.08 30.9442C119.015 31.13 118.662 32.5886 118.272 32.1334L118.281 32.1241ZM132.589 14.5836C132.05 14.6579 131.279 14.9088 130.768 15.1132C128.073 16.1909 129.504 16.1537 130.034 17.9468C130.823 20.5946 130.972 33.1739 130.108 35.5709C129.867 36.2305 129.411 36.9273 128.882 37.4011C132.431 39.5472 138.042 39.5472 141.591 37.4011C140.411 36.2305 140.17 34.9856 139.947 33.4062C139.259 28.5658 141.275 20.9198 138.488 16.7855C137.178 14.8438 134.8 14.277 132.579 14.5743L132.589 14.5836Z" fill="#0A60A5"/>
<path d="M28.5165 19.6851C35.3171 22.6023 36.1254 32.4595 29.9101 36.4451C23.3417 40.6537 11.1339 38.7585 3.78516 37.5228C4.47265 36.25 4.87213 35.2652 5.13226 33.8252C6.13564 28.1673 5.34594 20.4747 5.188 14.6589C5.12297 12.1505 5.63397 9.12175 4.89073 6.73409C4.65847 5.98155 3.51571 4.95031 4.02669 4.56011C4.7049 4.03055 13.2986 3.11078 14.7386 3.02717C20.8518 2.69271 29.8078 2.69271 32.4742 9.53052C34.2115 13.9714 31.7589 17.0001 28.5165 19.6851ZM14.9059 8.46212V33.3793C15.0174 33.7602 17.0892 33.9739 17.6001 33.9739C22.4033 33.9739 25.8873 31.2796 24.4937 26.1605C23.3417 21.9148 17.851 23.8937 16.9033 20.3447C16.0208 17.0373 18.4827 17.9291 20.5824 16.8236C22.682 15.718 23.8991 13.7113 23.5089 11.4072C22.8307 7.37513 17.9067 8.02547 14.8966 8.46212H14.9059Z" fill="#FCFDFD"/>
<path d="M67.8609 17.8081C68.3719 18.1612 69.4867 16.4517 69.9791 16.0522C72.1531 14.2963 74.4665 14.1291 77.0492 15.1232C83.7012 17.6781 84.3515 28.0741 81.4993 33.6299C79.0188 38.4702 71.5864 41.2945 67.7308 36.3613C66.8761 37.0116 66.4859 37.7549 65.4361 38.2751C62.9462 39.5201 59.741 38.9069 57.502 37.4111C58.3846 36.6121 59.0256 35.0606 59.1464 33.89C59.7689 28.1763 58.9048 21.1899 59.388 15.3462C58.6819 12.3453 59.7781 8.96358 58.5611 6.08353C58.2173 5.26596 57.056 4.86646 58.2731 4.16038C60.1591 3.07339 63.5408 2.8876 65.4825 3.88168C69.9977 6.19502 68.4369 13.7761 67.8609 17.8174V17.8081ZM71.5585 19.7313C69.8119 20.1308 68.6785 24.3115 68.5577 25.8909C68.3812 28.0927 68.8549 35.7388 72.6548 33.4905C75.4884 31.8089 75.4698 24.3672 74.4014 21.738C73.8532 20.4002 73.2029 19.3597 71.5678 19.7406L71.5585 19.7313Z" fill="#FCFDFD"/>
<path d="M143.838 14.5193C144.349 14.3613 144.154 13.1071 144.247 12.5868C145.204 7.61642 149.617 5.88837 154.141 8.00661C155.869 8.81488 154.662 9.01 154.188 10.0505C153.463 11.6113 153.565 12.8284 153.612 14.5193C156.167 14.5936 158.619 14.2684 161.156 14.5193C161.174 15.9407 161.119 18.059 159.725 18.8486C159.539 18.9508 158.071 19.4525 157.978 19.4525H153.621C153.723 21.4686 153.37 23.4289 153.38 25.4449C153.38 26.0023 153.621 26.5133 153.63 27.0707C153.668 28.6501 152.831 34.6611 155.581 33.732C155.804 33.6577 156.919 31.651 158.118 31.0935C162.196 29.1983 163.506 35.6737 162.336 36.9373C160.914 38.4609 154.615 39.1205 152.562 38.9254C147.805 38.4888 144.191 34.4381 144.191 29.6628V19.4525C140.661 19.8892 138.979 17.966 139.249 14.5286H143.838V14.5193Z" fill="#FCFDFD"/>
<path d="M118.281 32.1242C118.671 32.5795 119.024 31.1209 119.089 30.9351C120.297 27.5626 121.04 22.0905 119.879 18.6809C119.637 17.9841 118.012 15.5407 118.049 15.3549C118.235 14.5373 122.239 14.4723 123.047 14.5838C126.995 15.1226 129.272 19.1175 129.123 22.8616C128.9 28.5938 121.802 39.5381 115.336 38.9249C107.383 38.1817 108.99 22.0348 104.717 16.8878C104.503 16.6277 104.122 16.5441 103.918 16.2746C103.667 15.2991 106.965 14.6581 107.634 14.5838C116.999 13.6083 116.841 25.8624 118.29 32.115L118.281 32.1242Z" fill="#FCFDFD"/>
<path d="M92.3604 29.7748C94.4507 35.5628 101.326 33.6768 105.785 32.1253C106.185 36.4826 101.651 38.5543 97.8696 38.8981C87.2506 39.855 80.6915 30.3044 85.1695 20.8559C89.3317 12.0764 104.652 12.8011 105.767 21.2368C106.761 28.7621 97.8975 29.8956 92.3604 29.7841V29.7748ZM92.1281 24.8508C93.6425 24.5164 97.0985 25.0367 97.6745 23.2157C98.0275 22.1009 97.5537 20.2149 96.3553 19.8154C93.2058 18.7563 92.0166 22.3796 92.1281 24.8508Z" fill="#FCFDFD"/>
<path d="M43.8353 29.7743C44.5971 33.6671 49.1401 34.0387 52.4011 33.4905C53.2744 33.3419 56.6562 32.0598 56.8884 32.1248C58.1798 32.5057 56.0523 35.7295 55.4762 36.3148C53.1257 38.7025 49.2888 39.2042 46.0836 38.9162C30.5963 37.5319 32.0084 13.3301 48.2111 14.51C53.1815 14.8724 58.8951 19.211 56.749 24.6738C54.8909 29.4027 48.1832 29.6443 43.8445 29.7743H43.8353ZM45.8791 19.7406C45.0058 19.9357 44.2533 21.0227 43.9467 21.8031C43.7238 22.3791 43.027 24.5902 43.7423 24.8225C44.0303 24.9154 47.1427 24.5902 47.5515 24.4602C50.1993 23.6519 49.391 18.9323 45.8699 19.7406H45.8791Z" fill="#FCFDFD"/>
<path d="M132.588 14.5846C134.809 14.2873 137.187 14.854 138.497 16.7957C141.275 20.9207 139.268 28.5668 139.956 33.4164C140.179 34.9865 140.42 36.2407 141.6 37.4113C138.042 39.5574 132.44 39.5574 128.891 37.4113C129.42 36.9375 129.875 36.2407 130.117 35.5811C130.981 33.1842 130.832 20.6048 130.043 17.957C129.504 16.1639 128.082 16.2011 130.777 15.1234C131.297 14.919 132.059 14.6682 132.598 14.5939L132.588 14.5846Z" fill="#FCFDFD"/>
<path d="M130.61 4.51329C135.321 -0.141256 142.521 7.84859 137.002 11.9364C132.32 15.4018 126.179 8.88912 130.61 4.51329Z" fill="#FCFDFD"/>
<path d="M14.9062 8.46195C17.9257 8.0253 22.8403 7.37496 23.5185 11.407C23.9087 13.7111 22.5988 15.7736 20.592 16.8234C18.5853 17.8732 16.0304 17.0371 16.913 20.3445C17.8606 23.9028 23.342 21.9146 24.5033 26.1604C25.8876 31.2702 22.4037 33.9737 17.6098 33.9737C17.0988 33.9737 15.0363 33.76 14.9062 33.3791V8.46195Z" fill="#0A60A5"/>
<path d="M71.5588 19.7319C73.2032 19.3603 73.8535 20.4008 74.3924 21.7293C75.4701 24.3586 75.4886 31.8003 72.6458 33.4818C68.8459 35.7302 68.3721 28.0933 68.5487 25.8822C68.6787 24.3028 69.8029 20.1221 71.5495 19.7226L71.5588 19.7319Z" fill="#0A60A5"/>
<path d="M92.1282 24.8491C92.0167 22.3778 93.2059 18.7545 96.3554 19.8137C97.5539 20.2224 98.0277 22.1084 97.6746 23.214C97.0986 25.0256 93.6426 24.5147 92.1282 24.8491Z" fill="#0A60A5"/>
<path d="M45.8798 19.7405C49.4009 18.9322 50.2091 23.6611 47.5614 24.4601C47.1526 24.5809 44.0403 24.9153 43.7523 24.8224C43.0369 24.5902 43.7337 22.379 43.9566 21.803C44.2632 21.0226 45.0158 19.9356 45.8891 19.7405H45.8798Z" fill="#0A60A5"/>
</svg>
