<svg width="150" height="52" viewBox="0 0 150 52" fill="none" xmlns="http://www.w3.org/2000/svg">
<path d="M24.7185 18.62C28.238 14.9475 28.1869 9.27726 24.965 5.41773C23.8258 4.04054 20.3829 1.76221 18.6231 1.76221H0.660156V36.8891H20.2469C20.8334 36.8891 23.1798 35.9369 23.8088 35.5884C29.9042 32.2389 30.7713 22.4796 24.7185 18.62ZM9.84142 9.60029H15.9198C18.1046 9.60029 19.2862 14.0124 17.0249 15.2876C16.7954 15.4151 15.2822 15.8146 15.1121 15.8146H9.84142V9.60029ZM19.0397 28.1158C18.8782 28.2944 17.637 29.051 17.5435 29.051H9.84142V23.1087H17.8155C19.4307 23.1087 20.2044 26.7982 19.0397 28.1158Z" fill="white"/>
<path d="M112.519 20.005V37.1603H103.873V21.8922C103.873 21.4757 103.057 20.2005 102.657 19.8604C100.421 17.9647 97.0889 19.5799 96.5789 22.3003V37.1603C96.3068 37.1688 96.0348 37.1518 95.7712 37.1603C93.2549 37.2283 90.7131 37.0583 88.2052 37.1603C88.1712 37.1603 87.8652 37.7214 87.6611 37.2963V0.137695H96.1708C96.4683 0.137695 96.5619 0.800792 96.5874 1.07283C97.0209 4.74534 96.5279 9.90557 96.5704 13.7906C96.5789 14.2497 96.4003 14.9893 96.8509 15.2698C99.2992 11.0362 107.367 11.5633 110.351 15.1423C111.039 15.9669 112.519 19.0443 112.519 20.005Z" fill="white"/>
<path d="M41.1857 27.1634H56.3178C56.5644 25.1912 57.0234 23.3804 56.8534 21.3572C55.7568 8.26535 34.0703 9.58302 32.5741 22.4623C30.8653 37.0673 45.2068 40.9778 56.3348 35.6306L55.5102 29.3227C51.4722 30.7339 42.3334 33.1058 41.1857 27.1634ZM49.0238 22.0287H41.1857C41.3643 17.8376 49.2704 17.4041 49.0238 22.0287Z" fill="white"/>
<path d="M82.2632 20.4047H74.6972C74.5952 20.4047 74.4677 19.2401 73.3625 18.9085C69.6815 17.7864 66.9101 21.0848 71.9343 21.9519C74.5867 22.411 77.239 22.309 79.7384 23.6012C83.904 25.752 84.091 31.5328 81.0561 34.7377C75.9979 40.0594 59.4801 39.4049 60.3727 29.3225H68.3468C68.5083 29.3225 68.9589 30.5806 69.418 30.9547C71.8663 32.9524 75.9894 30.3001 73.7536 28.5064C72.8694 27.7923 69.1119 27.6307 67.6667 27.2992C62.7871 26.1855 59.3866 23.4311 61.0528 17.9734C63.6542 9.42121 82.6543 10.1693 82.2632 20.4047Z" fill="white"/>
<path d="M117.117 12.5667C120.645 12.2777 126.46 11.1555 127.387 15.8057L129.299 13.5358C132.317 11.402 135.879 11.7166 138.999 13.3913L137.384 20.3963C134.74 19.0531 131.187 18.662 129.01 21.0764C128.585 21.5524 127.659 23.2187 127.659 23.7798V37.1521H119.285V19.1806C119.285 17.5229 117.126 17.5739 117.126 17.4209V12.5582L117.117 12.5667Z" fill="white"/>
<path d="M36.8663 45.5339V49.3169C30.839 49.3169 24.7946 49.3169 18.7588 49.3169V45.5339C24.7861 45.4659 30.8305 45.4659 36.8663 45.5339Z" fill="#FDED01"/>
<path d="M36.8662 45.5346C42.9871 45.6026 49.1249 45.4836 55.2372 45.5346V49.3176C49.1164 49.3176 42.9871 49.3176 36.8662 49.3176V45.5346Z" fill="#244896"/>
<path d="M18.7676 45.5346V49.3176C12.7403 49.3176 6.69599 49.3176 0.660156 49.3176V45.5346C6.68749 45.4836 12.7318 45.6026 18.7676 45.5346Z" fill="#D52728"/>
<path d="M104.349 43.4428C98.9512 43.6808 99.1807 52.3775 105.837 51.1449C110.062 50.3713 109.841 43.2048 104.349 43.4428ZM105.429 48.9856C103.397 51.0854 102.581 44.3269 105.225 45.6616C106.016 46.0612 105.948 48.4415 105.429 48.9856Z" fill="white"/>
<path d="M57.6949 47.5319C57.8139 52.0715 64.8614 52.2415 65.771 49.1811C65.958 48.5435 63.8752 48.705 63.4672 48.7645C62.328 48.9261 60.9848 50.2182 60.6448 47.9654H66.043C66.5701 42.1251 57.5589 42.0571 57.6949 47.5319ZM63.0761 46.6138C62.7786 46.4522 60.4323 47.0133 60.6448 46.2142C61.0528 44.701 63.2376 44.99 63.0761 46.6138Z" fill="white"/>
<path d="M71.169 47.8303C71.5006 52.2764 78.4545 52.0809 79.0241 49.182C79.1431 48.5359 77.4004 48.6974 76.9753 48.7654C75.8277 48.9439 74.357 50.3126 74.153 47.9663H79.2877C80.0188 42.0665 70.7355 41.939 71.169 47.8303ZM74.289 46.6146C73.7789 44.8294 76.7628 44.7104 76.5843 46.6146H74.289Z" fill="white"/>
<path d="M117.389 50.9409H114.686V46.4863C114.686 45.6957 112.799 45.8827 112.799 46.0783V50.9409H109.823V43.919C110.571 44.038 111.685 43.7404 112.348 43.919C112.569 43.9785 112.501 44.4885 112.654 44.463C112.884 44.4205 113.555 43.817 114.074 43.7149C115.102 43.5024 117.389 43.868 117.389 45.1346V50.9409Z" fill="white"/>
<path d="M139 45.7975C138.235 46.2651 135.098 45.1089 134.953 45.2619C134.928 45.2874 134.919 46.044 134.953 46.0695C135.106 46.231 138.184 46.2055 138.974 47.5912C141.295 51.6463 132.08 52.6324 131.748 49.1299C131.672 48.2883 133.712 48.3648 134.239 48.5434C134.86 48.7559 134.749 50.1671 136.305 49.3085C136.968 48.4159 132.683 48.1183 132.122 46.8771C130.354 42.9751 138.532 42.091 139.008 45.7975H139Z" fill="white"/>
<path d="M130.898 46.6143C130.159 46.5123 129.036 46.8014 128.373 46.5718C127.889 46.4103 127.94 45.5857 127.243 45.5092C125.474 45.3307 125.959 48.7736 126.333 49.0031C127.447 49.6917 127.982 48.136 128.365 48C129.019 47.7705 130.15 48.068 130.89 47.9575C131.145 50.6694 128.458 51.477 126.18 51.1709C122.176 50.6439 121.921 44.9226 125.415 43.7069C127.574 42.9503 131.111 43.8514 130.881 46.6058L130.898 46.6143Z" fill="white"/>
<path d="M87.3041 44.5486C87.8481 45.1181 88.0352 45.8407 87.9416 46.6143C87.202 46.5123 86.0714 46.8014 85.4168 46.5718C84.8897 46.3933 85.0002 45.4157 84.0311 45.5177C82.8069 45.6452 82.5604 48.9352 84.0396 49.0627C84.9492 49.1392 85.1022 48.2041 85.6973 48.0255C86.3604 47.83 87.236 48.034 87.9416 47.9745C88.2052 52.2166 81.1237 52.3526 80.2226 48.5356C79.1259 43.86 84.8217 41.9387 87.3041 44.557V44.5486Z" fill="white"/>
<path d="M92.5323 41.4793C92.6514 41.5984 92.3963 43.4941 92.5408 43.6301C92.8214 43.8937 94.3856 43.1796 93.884 45.5344C93.5865 45.5939 92.6173 45.4494 92.5323 45.5344C92.4133 45.6449 92.4133 48.6628 92.5323 48.7818C92.6343 48.8839 93.782 48.6798 93.884 48.7818C93.952 48.8499 93.9435 50.5416 93.8925 50.7626C93.731 51.4767 91.1891 51.2047 90.5601 50.8816C88.7153 49.938 89.9735 47.0901 89.5739 45.6959C89.4719 45.3474 88.2478 45.8064 88.4603 44.3187C88.5878 43.4346 89.4719 43.8257 89.5739 43.4771C89.6844 43.0861 89.4209 41.6069 89.5569 41.4793C89.6589 41.3773 92.4303 41.3773 92.5323 41.4793Z" fill="white"/>
<path d="M94.9639 43.6385C95.6355 43.732 96.6301 43.4685 97.2337 43.6725C97.6757 43.8255 97.6417 44.4206 97.6757 44.4461C97.7778 44.5311 99.325 43.1199 100.099 43.63C100.014 44.1061 100.226 46.1804 100.09 46.3249C100.014 46.4099 97.9393 46.4609 97.9393 47.0135V50.9325H94.9639V43.6385Z" fill="white"/>
<path d="M69.8257 47.4299C69.8172 48.1695 69.9873 50.2013 69.8257 50.6689C69.6812 51.1024 67.5559 51.1194 67.3944 50.6689C67.3264 50.4649 67.4114 49.8953 67.3944 49.5892C67.3774 49.2322 67.4029 48.8667 67.3944 48.5096C67.3774 47.3364 67.4114 46.1633 67.3944 44.9986C67.3859 43.7149 67.5304 42.4483 67.1309 41.2156C67.3944 41.2326 67.6749 41.1816 67.9385 41.2156C68.406 41.2666 68.4485 41.4791 68.474 41.4791C69.0776 41.4961 69.5282 41.3006 70.0978 41.2156C69.6302 43.2304 69.8512 45.3642 69.8257 47.4299Z" fill="white"/>
<path d="M121.708 43.9106H119.005V50.9326H121.708V43.9106Z" fill="white"/>
<path d="M144.593 11.5464C140.7 12.4305 141.176 19.1804 145.647 19.2994C151.122 19.444 150.926 10.1097 144.593 11.5464ZM143.675 17.6162C141.108 15.3464 144.092 10.6708 147.364 12.7195C151.139 15.0744 146.846 20.4216 143.675 17.6162Z" fill="white"/>
<path d="M121.98 40.9351H119.005V43.1028H121.98V40.9351Z" fill="white"/>
<path d="M147.373 17.166C145.529 17.6506 146.948 15.7548 145.35 15.8143L145.214 17.166C144.951 17.1235 144.203 17.234 144.135 17.166C144.007 17.047 144.228 14.1906 144.135 13.6465C147.952 13.281 147.093 14.1651 147.373 17.166Z" fill="white"/>
</svg>
