<svg width="160" height="44" viewBox="0 0 160 44" fill="none" xmlns="http://www.w3.org/2000/svg">
<path d="M26.4176 1.97266H23.1502V20.6813C19.5304 17.5378 15.0628 16.0804 10.2999 17.2711C2.40297 19.2525 -2.35036 28.8354 1.9553 36.075C5.77515 42.4859 12.3956 45.296 19.378 41.7619L23.1502 39.6567V42.6097C23.979 42.7907 24.7314 42.6383 25.5411 42.6097C26.2937 42.5716 26.951 43.0288 26.9795 41.8762V2.79189C27.0843 2.53469 26.6081 1.97266 26.4176 1.97266ZM6.52768 36.3036C1.21228 30.1024 5.55605 20.6147 13.5577 20.3575C17.5967 20.2336 21.5594 23.2914 22.8263 27.0541C26.046 36.618 13.491 44.4196 6.52768 36.3036Z" fill="white"/>
<path d="M112.084 42.611C111.76 42.5062 111.951 41.8013 111.941 41.6203C111.655 36.4002 112.208 30.9228 111.865 25.7694C111.522 20.6159 105.159 18.5488 101.758 22.5497C100.405 24.1405 100.625 25.1502 100.548 27.0839C100.348 32.1421 100.529 37.2289 100.434 42.2966C100.31 42.8491 99.7196 42.611 99.3671 42.6205C98.8432 42.6205 98.3193 42.6205 97.7954 42.6205C97.4334 42.6205 97.0809 42.8491 96.7571 42.4491L96.7285 17.6153C97.0429 17.2152 97.5287 17.4629 97.8906 17.4724C98.5193 17.4819 99.1481 17.3772 99.7196 17.3772C100.863 17.3772 100.367 18.1964 100.463 18.8251C100.472 18.9108 100.444 19.0156 100.596 18.9489C100.872 18.8346 101.387 18.4155 101.71 18.2345C103.701 17.1771 105.683 16.577 107.969 16.9675C110.255 17.3581 112.275 18.9775 113.656 20.7683C113.884 20.7683 114.799 19.6157 115.047 19.3776C118.866 15.8435 125.639 15.9197 128.926 20.1206C131.193 23.0164 130.85 25.2931 130.926 28.7414C131.021 32.9614 131.26 37.6957 131.021 41.887C131.002 42.1442 130.945 42.3729 130.926 42.6205H127.573C127.325 42.6205 127.192 41.7346 127.182 41.5346C126.782 36.4478 127.602 30.7704 127.182 25.6932C126.763 20.6159 120.4 18.5679 117.038 22.5973C116.504 23.2451 115.685 24.7692 115.685 25.5979V42.611H112.075H112.084Z" fill="white"/>
<path d="M158.997 17.4619H155.558V20.2911C155.558 20.2911 155.415 20.4244 155.339 20.4244C155.234 20.4244 153.853 19.3099 153.586 19.1289C148.223 15.6425 141.45 16.195 136.84 20.634C129.19 28.0165 133.125 40.743 143.365 42.9148C148.032 43.915 152.033 42.3814 155.558 39.3903V42.4862C155.558 42.4862 155.682 42.61 155.691 42.61H159.302V17.8525C159.302 17.8525 159.035 17.4619 158.997 17.4619ZM152.51 37.266C146.413 42.6767 137.03 38.4853 136.573 30.4741C136.287 25.3588 140.688 20.5768 145.794 20.3578C154.672 19.9672 159.149 31.3696 152.51 37.266Z" fill="white"/>
<path d="M52.5757 32.6077C51.604 33.3602 51.0802 34.5129 50.3467 35.4654C47.9557 38.5613 44.0691 40.4665 40.1254 39.4377C39.2205 39.1995 38.2584 38.6852 37.5154 38.1232L52.9091 22.015C47.6128 15.1183 37.2391 15.2708 31.8571 22.0341C22.779 33.4365 37.0963 49.0969 49.6036 41.2571C50.3276 40.7999 52.2232 39.4091 52.4614 38.628C52.6043 38.1613 52.6519 36.9324 52.6614 36.3895C52.69 35.1321 52.4995 33.8746 52.5757 32.6077ZM33.3526 33.1507C31.1903 27.0732 35.7341 20.6433 42.1068 20.4433C43.6214 20.3956 45.6695 20.7957 46.9459 21.653C47.1269 21.7769 47.5746 22.0436 47.5175 22.2722L34.61 35.294C34.0575 34.6748 33.6384 33.9318 33.3526 33.1507Z" fill="white"/>
<path d="M73.0374 37.4389C70.1321 40.049 65.2358 40.5158 62.0637 38.1248L77.4574 22.1024C77.505 21.95 77.0478 21.4451 76.9049 21.2927C71.0942 14.596 60.1871 15.8058 55.5862 23.2169C48.9943 33.8286 60.0347 46.7838 71.599 42.5257C72.9803 42.0208 76.3619 40.0871 76.9621 38.7535C77.0764 38.5153 77.2097 37.8485 77.2097 37.6104V32.5141C77.0383 32.5141 76.8572 32.676 76.7429 32.7903C75.4379 34.0382 74.5425 36.0767 73.0374 37.4389ZM57.3675 30.9042C56.7578 25.9984 60.9492 20.8831 65.874 20.4449C67.541 20.302 69.208 20.6164 70.7417 21.2736C71.1132 21.4356 72.3706 21.95 72.2182 22.4262L59.0726 35.3814C58.2057 34.0763 57.558 32.476 57.3675 30.9042Z" fill="white"/>
<path d="M156.777 0.230469L156.511 0.525766C150.29 4.61233 144.394 9.57527 138.174 13.6142C137.783 13.8714 137.469 14.1286 136.964 14.1572L122.646 9.45144L156.768 0.230469H156.777Z" fill="white"/>
<path d="M94.8885 23.987C94.8218 24.0537 94.4407 23.7489 94.3645 23.6822C93.5548 23.0249 92.9261 22.1104 92.0402 21.4722C89.0777 19.3575 84.9149 20.6435 83.467 23.9203C82.7335 25.5874 83.0765 28.6547 83.0479 30.5503C83.0098 33.3128 83.0193 36.0467 83.0479 38.8092C83.0479 39.4569 83.1622 42.1527 82.8288 42.5147C82.5811 42.7814 81.1903 42.5909 80.7331 42.6004C80.1615 42.6004 79.5043 42.9529 79.2566 42.1718L79.209 18.1001C79.2947 17.1285 79.9425 17.4428 80.5616 17.4523C81.3618 17.4618 82.162 17.4333 82.9622 17.4523L83.0955 18.7574C85.4579 17.4047 87.7727 16.4616 90.5542 16.957C91.6306 17.1475 94.3264 18.1477 94.7551 19.1956C95.0313 19.8528 94.8027 20.3577 94.7932 20.9769C94.7837 21.9676 94.7456 23.0154 94.8885 23.987Z" fill="white"/>
<path d="M152.168 0.0578749L132.84 5.27799C132.887 3.69671 132.964 2.06782 133.278 0.534165C133.402 0.467484 133.554 0.36268 133.688 0.334102C133.992 0.276947 134.707 0.238849 135.059 0.219797C137.898 0.0769103 140.842 0.172172 143.68 0.134069C146.519 0.0959654 149.339 0.0959688 152.168 0.0483398V0.0578749Z" fill="white"/>
<path d="M135.973 15.1099L131.705 18.1582L132.058 13.8906L135.973 15.1099Z" fill="white"/>
<path d="M14.7101 35.6945C6.62266 37.171 5.16525 24.5112 13.3765 24.1873C20.6733 23.9016 21.4543 34.4657 14.7101 35.6945Z" fill="#FAD00A"/>
<path d="M146.804 35.7323C138.993 36.2086 138.583 24.6157 145.966 24.187C153.815 23.7393 154.406 35.2846 146.804 35.7323Z" fill="#FAD00A"/>
</svg>
