<svg width="147" height="47" viewBox="0 0 147 47" fill="none" xmlns="http://www.w3.org/2000/svg">
<path d="M146.916 0.859375V46.562H0.380859V0.859375H146.916ZM28.062 31.6023H16.1015C15.9582 31.6023 15.6091 31.28 15.6807 31.0831L15.815 11.0473C15.8419 10.9309 15.7255 10.6445 15.636 10.6445H10.157V36.2666C10.157 36.2666 10.3182 36.4456 10.3361 36.4456H28.062V31.6202V31.6023ZM49.4944 25.1117C48.8587 18.9793 43.532 15.4341 37.5607 16.3025C26.2805 17.9408 25.2689 33.742 36.5669 36.4635C41.1775 37.5736 45.4389 36.2308 48.9572 33.2496C49.0915 33.1332 49.0647 33.1422 48.9751 33.0079C48.7424 32.6408 45.985 30.4922 45.6448 30.4385C45.4031 30.4027 43.4425 31.6829 42.8964 31.8888C40.712 32.7303 37.2921 32.7751 35.7164 30.8324L49.4944 25.1028V25.1117ZM71.4101 36.4277V22.5871C71.4101 21.3517 70.121 19.2568 69.2347 18.4063C66.0207 15.3266 59.6555 15.4162 57.0682 19.1941C56.9966 19.3016 57.0861 19.409 56.8086 19.3463V16.6337H51.5087V36.3024H56.8086V25.0491C56.8086 24.8342 57.1488 23.7689 57.2562 23.5003C58.9393 19.3732 65.9939 20.6623 65.9939 24.9327V36.4188H71.4101V36.4277ZM83.5229 16.204C76.3609 16.6785 71.4997 23.8226 74.3734 30.5817C77.5695 38.1108 88.7512 39.0777 93.2543 32.2917C98.2677 24.7447 92.3232 15.6131 83.5229 16.195V16.204ZM125.456 16.204C118.814 16.7143 114.293 22.802 116.029 29.3373C118.554 38.8539 132.923 39.4537 136.441 30.2505C139.333 22.6946 133.236 15.6042 125.456 16.204ZM116.531 16.5263H110.345L105.394 29.8387L100.327 16.5263H94.1406L102.207 36.3203L102.556 36.4367L108.393 36.374L116.522 16.5263H116.531Z" fill="white"/>
<path d="M49.4951 25.1129L35.7172 30.8425C37.3018 32.7852 40.7127 32.7404 42.8971 31.8989C43.4432 31.684 45.4038 30.4038 45.6456 30.4486C45.9858 30.5023 48.7431 32.6509 48.9759 33.018C49.0654 33.1522 49.0923 33.1433 48.958 33.2597C45.4397 36.2409 41.1783 37.5837 36.5677 36.4736C25.2696 33.7431 26.2813 17.9509 37.5614 16.3126C43.5328 15.4442 48.8506 18.9894 49.4951 25.1218V25.1129ZM43.3716 23.4656C43.1657 21.9347 41.2588 20.7709 39.7906 20.6456C35.7888 20.2964 33.7656 23.4388 33.9536 27.1272L43.3716 23.4656Z" fill="#DF2A27"/>
<path d="M83.5232 16.204C92.3235 15.6131 98.259 24.7536 93.2546 32.3006C88.7514 39.0777 77.5698 38.1108 74.3737 30.5907C71.5 23.8315 76.3612 16.6874 83.5232 16.2129V16.204ZM83.3979 21.0294C77.4534 21.7814 77.6951 31.5307 83.8365 32.0679C91.5715 32.7393 91.4462 20.0088 83.3979 21.0294Z" fill="#DF2A27"/>
<path d="M125.456 16.205C133.236 15.6051 139.323 22.6955 136.441 30.2515C132.922 39.4547 118.553 38.8548 116.029 29.3383C114.301 22.8119 118.813 16.7242 125.456 16.205ZM126.163 20.914C118.867 21.3795 119.78 32.7313 127.067 32.0688C133.791 31.4601 132.752 20.4932 126.163 20.914Z" fill="#DF2A27"/>
<path d="M71.4112 36.4284H65.9949V24.9424C65.9949 20.6631 58.9404 19.3739 57.2573 23.51C57.1498 23.7785 56.8097 24.8439 56.8097 25.0588V36.3121H51.5098V16.6434H56.8097V19.356C57.0961 19.4187 56.9977 19.3112 57.0693 19.2038C59.6566 15.4169 66.0218 15.3363 69.2358 18.416C70.1221 19.2665 71.4112 21.3703 71.4112 22.5968V36.4374V36.4284Z" fill="#DF2A27"/>
<path d="M116.532 16.5273L108.403 36.3751L102.566 36.4377L102.208 36.3124L94.1504 16.5273H100.328L105.395 29.8308L110.346 16.5273H116.532Z" fill="#DF2A27"/>
<path d="M28.0623 31.6027V36.4281H10.3363C10.3363 36.4281 10.1572 36.267 10.1572 36.2491V10.627H15.6362C15.7347 10.627 15.8421 10.9134 15.8152 11.0298L15.6809 31.0655C15.6093 31.2714 15.9585 31.5848 16.1017 31.5848H28.0623V31.6027Z" fill="#DF2A27"/>
<path d="M43.3706 23.4653L33.9526 27.1268C33.7556 23.4384 35.7789 20.2961 39.7896 20.6452C41.2578 20.7706 43.1647 21.9433 43.3706 23.4653Z" fill="white"/>
<path d="M83.3975 21.0309C91.4458 20.0103 91.5712 32.7497 83.8362 32.0694C77.6948 31.5322 77.4531 21.7829 83.3975 21.0309Z" fill="white"/>
<path d="M126.164 20.9132C132.753 20.4924 133.791 31.4592 127.068 32.068C119.781 32.7305 118.868 21.3787 126.164 20.9132Z" fill="white"/>
</svg>
