<svg width="172" height="36" viewBox="0 0 172 36" fill="none" xmlns="http://www.w3.org/2000/svg">
<path d="M150.071 1.80888C150.741 1.99536 157.443 11.4729 158.485 12.8879C160.119 15.1038 161.655 17.3744 163.333 19.5573C163.794 20.1497 163.805 21.0272 164.935 21.3015V1.81986H171.966V34.3989H165.736C164.529 34.3989 153.669 16.8369 151.19 15.2354V34.3989H143.841V1.81986C145.497 2.11603 148.645 1.41399 150.071 1.81986V1.80888Z" fill="white"/>
<path d="M7.20619 1.8089C7.35976 1.85278 8.08374 2.69742 8.31409 2.93874C11.945 6.71221 16.574 14.2482 19.9636 18.7676C20.6875 19.7329 20.9069 20.9943 22.0697 21.2905V1.8089H29.101V34.3879H22.8704L8.32506 14.9063V34.3879H0.975586V2.29156C0.975586 2.29156 1.42533 1.8089 1.45824 1.8089C2.75262 1.8089 6.28476 1.54564 7.20619 1.8089Z" fill="white"/>
<path d="M134.461 6.39413C142.403 14.9831 139.134 29.5724 128.461 34.1905C125.872 35.3094 116.658 35.4081 113.664 35.0023C107.981 34.2234 101.63 26.3145 101.049 20.775C99.0633 1.77604 122.604 -6.42906 134.451 6.39413H134.461ZM118.194 6.04314C103.012 7.7763 104.394 30.7461 120.333 30.2306C137.072 29.6931 135.69 4.04671 118.194 6.04314Z" fill="#FD7202"/>
<path d="M67.779 29.5943C69.2598 29.5285 71.6402 25.7441 72.408 25.7441C75.9621 28.8155 82.8289 30.0221 87.1728 28.3767C91.5167 26.7313 91.0669 21.9597 86.1088 21.0053C79.7356 19.7877 69.1721 21.3125 69.3585 11.2426C69.556 0.525509 84.957 -0.0668254 92.2736 3.02654C93.2169 3.42143 95.6631 4.44159 95.1037 5.63725C94.983 5.88955 91.747 9.04871 91.5057 9.11452C90.8585 9.29003 87.9736 7.60074 86.7011 7.32651C83.6187 6.65738 76.4886 6.39412 76.3789 10.9354C76.2583 15.8387 84.7815 14.7528 88.0284 15.2684C94.4345 16.2775 98.8223 20.8627 96.6065 27.5979C93.7105 36.3515 77.7721 36.0005 71.0698 32.5341C70.4774 32.227 67.3731 30.1976 67.768 29.6053L67.779 29.5943Z" fill="white"/>
<path d="M56.59 1.8088V25.9195C56.59 27.1261 58.1257 28.6289 59.3104 28.6289H65.541V34.3769H56.1073C53.6173 34.3769 49.5586 29.6929 49.5586 27.1919V2.28047C49.5586 2.28047 50.0083 1.79785 50.0412 1.79785H56.59V1.8088Z" fill="white"/>
<path d="M42.8458 1.80957H35.8145V34.3886H42.8458V1.80957Z" fill="white"/>
<path d="M117.844 13.0314C119.018 12.6365 122.331 12.5927 122.671 14.1722C122.912 15.2692 122.912 20.6112 122.671 21.6972C122.111 24.1982 117.603 23.924 117.054 22.0153C116.802 21.1488 116.879 14.4245 117.219 13.6896C117.35 13.3934 117.504 13.1411 117.833 13.0314H117.844ZM121.464 20.6442H118.436C117.789 22.8051 121.738 22.9148 121.464 20.6442Z" fill="#FD7202"/>
<path d="M121.464 20.6436C121.738 22.9142 117.778 22.8045 118.436 20.6436H121.464Z" fill="#FD7202"/>
</svg>
