<svg width="248" height="39" viewBox="0 0 248 39" fill="none" xmlns="http://www.w3.org/2000/svg">
<path d="M30.6751 6.36903C27.9855 2.50629 24.2658 1.19008 19.6592 0.98979C13.5503 0.732274 7.26977 1.20439 1.1323 0.98979C1.00354 0.961177 0.703125 1.08996 0.703125 1.1901V37.5571H11.762V26.4696C11.762 26.3265 12.0767 26.2836 12.1912 26.2693C15.8536 25.8401 19.4732 26.6842 23.3216 25.8544C32.349 23.8944 35.897 13.8084 30.6751 6.36903ZM18.0425 17.8571H11.948C11.948 17.8571 11.762 17.6854 11.762 17.6711V9.98856C11.762 9.98856 11.9194 9.85979 11.948 9.80257H19.2872C20.2028 9.80257 21.662 11.3333 21.9625 12.206C22.9496 15.0959 21.147 17.8571 18.0425 17.8571Z" fill="white"/>
<path d="M206.23 37.5565H195.915V22.1342C195.915 21.8051 195.672 21.004 195.529 20.6606C194.556 18.3859 191.223 18.2858 189.578 19.8881C189.234 20.2171 188.333 21.705 188.333 22.1199V37.3563C188.333 37.3563 188.161 37.5422 188.147 37.5422H178.275V11.5188H187.718C187.832 12.2628 187.746 13.2356 187.846 13.9366C187.875 14.094 187.789 14.1655 188.032 14.1226C188.218 14.0796 190.207 12.5918 190.693 12.32C196.545 9.01519 203.97 10.3886 205.815 17.4417C205.915 17.8136 206.23 18.9725 206.23 19.2586V37.5422V37.5565Z" fill="white"/>
<path d="M89.9321 37.5568H79.8032C79.8032 37.5568 79.6172 37.3851 79.6172 37.3708V21.5049C79.6172 20.6895 78.6586 19.5736 77.9433 19.2016C75.3539 17.8997 72.0347 19.8883 72.0347 22.7353V37.5425H62.0918V11.5191H71.4053C71.5912 12.2916 71.5054 13.0213 71.6628 13.8081C71.6914 13.9798 71.5483 14.1657 71.8488 14.1228C72.0061 14.0942 73.1793 13.1071 73.4797 12.9068C76.9562 10.6464 80.7474 9.73075 84.696 11.4618C87.3713 12.635 89.9178 16.0399 89.9178 19.0156V37.5425L89.9321 37.5568Z" fill="white"/>
<path d="M119.161 36.4698C118.489 33.7659 118.847 29.1449 118.761 26.2121C118.575 20.0317 119.533 13.7512 112.223 11.6624C107.716 10.3892 99.6902 10.2747 95.7702 13.0931C93.6099 14.6525 92.1507 17.6568 92.7945 20.3178L101.407 20.4323C101.636 20.3607 101.664 19.2878 101.822 18.8872C102.938 16.0259 109.061 16.3406 108.689 19.6597C108.503 21.2764 105.885 21.6054 104.583 21.8772C99.8332 22.9216 91.9647 23.1648 91.4211 29.5598C90.7201 37.7288 99.3325 40.1179 105.67 37.3282C106.972 36.7559 107.816 35.9977 108.875 35.0821C109.132 35.1393 109.519 37.3139 110.005 37.5428H119.619C119.433 37.1994 119.261 36.8704 119.161 36.4698ZM109.061 28.5726C109.061 31.7916 103.367 34.0234 101.293 31.6056C100.663 30.876 100.477 29.8316 101.049 29.0161C101.879 27.8573 105.799 27.0419 107.258 26.5268C107.859 26.3265 108.431 25.926 109.061 25.9117V28.5726Z" fill="white"/>
<path d="M59.8608 31.6628C59.775 29.4597 59.6605 27.1993 59.6033 24.9818C59.4888 20.8615 60.2184 15.7112 56.2985 13.0359C52.0065 10.1317 41.5915 10.0601 37.1994 12.7926C34.8245 14.2662 33.0648 17.5567 33.8374 20.3464L42.5786 20.4609C42.4498 17.7284 44.6673 16.7269 47.0994 16.9987C49.6746 17.2849 50.9908 20.0889 48.3298 21.1762C43.437 23.1791 33.1936 22.006 32.4067 29.4596C31.5054 38.0435 41.477 40.4756 47.6431 36.8418C48.1152 36.5556 49.7175 35.0964 49.8463 35.0821C50.1324 35.0392 50.0036 35.1393 50.0466 35.2681C50.2898 36.0406 50.4185 36.899 50.9765 37.5571H60.6047C59.7034 35.7974 59.9323 33.5942 59.8608 31.6628ZM50.0322 28.7014C50.0322 29.245 49.2168 30.7615 48.8019 31.1764C47.2282 32.7644 42.4927 33.4798 41.806 30.7186C41.3196 28.8302 42.9077 28.2722 44.3526 27.7286C46.2125 27.0419 48.1867 26.627 50.0322 25.9117V28.7014Z" fill="white"/>
<path d="M160.594 10.8333C151.123 11.5487 145.6 19.9179 148.29 28.9739C152.053 41.6494 172.139 41.721 176.102 29.0025C179.435 18.287 171.309 10.0179 160.594 10.8333ZM162.911 31.8495C157.146 32.6078 156.845 23.8952 158.362 20.247C159.492 17.5717 162.711 16.3413 164.928 18.5159C167.675 21.2055 167.675 31.22 162.911 31.8495Z" fill="white"/>
<path d="M145.842 18.9735H136.643C137 15.6258 129.976 15.5113 130.176 18.4155C130.248 19.4313 131.478 19.603 132.294 19.789C137.472 20.9049 146.343 21.4914 146.843 28.4587C147.559 38.6019 134.225 39.7036 127.057 37.5433C123.209 36.3702 119.933 33.1655 120.248 28.9022H129.504C129.761 28.9022 129.904 30.2756 130.033 30.6046C130.92 32.8508 135.14 33.423 136.571 31.506C137.601 30.1182 136.872 28.8735 135.369 28.3871C130.047 26.6274 121.292 27.8578 120.505 20.0465C119.504 10.0177 136.028 9.05915 142.194 12.5499C144.769 13.9949 145.713 16.1122 145.842 19.0164V18.9735Z" fill="white"/>
<path d="M246.732 21.3191H237.791C237.104 17.1273 231.725 16.2403 230.022 20.3319C228.463 24.1088 229.235 32.4065 234.958 31.448C236.989 31.1047 237.733 28.6583 237.776 26.8986H247.033C247.376 26.8986 247.118 28.7584 247.075 29.0588C245.788 37.4138 234.7 40.3752 227.79 37.2993C215.244 31.7198 217.318 12.7495 231.51 10.9326C238.549 10.0313 246.532 13.3933 246.718 21.3333L246.732 21.3191Z" fill="white"/>
<path d="M218.16 11.5352V37.3726C218.16 37.3726 217.988 37.5586 217.974 37.5586H208.346V11.5352H218.16Z" fill="white"/>
<path d="M208.346 1.00439H217.974C217.974 1.00439 218.16 1.17608 218.16 1.19039V7.75704C218.16 7.75704 217.988 7.94303 217.974 7.94303H208.532C208.532 7.94303 208.346 7.77134 208.346 7.75704V1.00439Z" fill="white"/>
</svg>
