<svg width="157" height="46" viewBox="0 0 157 46" fill="none" xmlns="http://www.w3.org/2000/svg">
<path d="M36.3535 24.3569V44.8903H45.2675V24.3569H36.3535ZM26.1866 24.4708C25.3891 24.9645 20.1205 37.0016 18.8769 38.7388C17.0828 34.9511 14.8519 28.7902 12.4027 25.5341C12.0704 25.1069 11.1117 24.4329 10.656 24.3569C7.74165 23.8728 3.77355 24.7082 0.716797 24.3569C4.18175 26.92 10.2193 43.9695 12.8394 44.7574C14.4532 45.2415 23.2912 45.1751 24.3734 44.2163L34.2936 24.3569C32.5563 24.7272 27.2688 23.7873 26.1866 24.4708ZM154.902 28.8187C153.877 23.3887 139.609 23.3412 135.356 23.645C134.473 23.7114 129.869 24.262 129.651 24.4424C129.376 24.6702 129.015 28.306 128.189 29.1414C131.597 28.9705 142.533 27.3377 144.916 29.0845C145.504 29.5211 145.504 31.0115 145.324 31.2014C144.46 32.0937 126.48 29.0655 126.081 38.3971C125.768 45.9156 136.315 45.1656 141.498 44.8334C142.799 44.7574 144.061 43.7322 145.096 43.6847C146.254 43.6278 147.241 44.7669 148.447 44.8523C151.048 45.0517 153.687 44.7954 156.288 44.8808C153.516 39.9444 155.842 33.8215 154.902 28.8187ZM144.925 40.1723C143.397 41.264 136.429 41.226 135.774 38.9857C136.135 34.3436 141.878 35.3403 145.324 35.3024C145.105 36.5175 145.874 39.4983 144.925 40.1723ZM78.512 23.6165C59.1748 23.3981 57.3616 43.3145 75.7401 44.9093C78.55 45.1561 86.8659 45.3555 88.7645 43.5043C89.2676 43.0107 91.6408 39.1281 89.5904 39.5268C84.3597 40.552 75.4268 42.4886 72.6738 36.6789H86.7234C87.3025 36.6789 91.2706 33.2044 91.5459 32.5494C93.7483 27.2903 82.4326 23.6639 78.512 23.6165ZM72.6738 32.5684C72.6263 25.9138 83.0212 26.227 83.6382 32.5684H72.6738ZM150.469 22.9804C150.412 18.196 151.988 20.1705 152.728 19.468C153.042 19.1738 153.203 16.2974 153.545 15.462C148.286 14.5032 147.593 19.6199 150.469 22.9804ZM113.798 15.462V24.3569C106.421 23.0374 95.8178 23.4171 94.2134 32.5304C92.4572 42.555 100.934 45.5263 109.345 44.8903C111.007 44.7669 112.459 43.7417 113.57 43.6847C114.728 43.6278 115.715 44.7479 116.921 44.8523C119.066 45.0422 121.25 44.8049 123.395 44.8903V15.462H113.798ZM113.798 39.0711C113.798 40.3147 103.773 42.4791 104.143 34.2771C104.418 28.0497 108.899 29.1319 113.798 29.1509V39.0711ZM50.745 20.9394V44.8903H59.6589V14.095C56.6686 16.155 54.0485 19.5724 50.745 20.9394ZM41.3943 7.17458C37.113 4.84879 33.5721 1.07057 28.4554 0.415557C27.3067 0.263669 27.3732 0.33962 27.4301 1.43132C27.6105 4.94373 30.5723 9.84213 32.8981 12.4147C34.8252 14.5412 38.0813 14.6171 36.3535 18.196C39.5812 17.5694 42.0304 17.5599 45.258 18.2054C44.5745 14.5127 45.7421 15.3196 47.3275 13.7817C51.4284 9.79467 53.7258 6.1873 54.8555 0.406055C49.7103 0.909184 44.9352 3.48179 41.3943 7.17458Z" fill="#FDFBFB"/>
<path d="M113.798 15.4614V24.3564C106.421 23.0368 95.8178 23.4166 94.2135 32.5299C92.4573 42.5545 100.935 45.5258 109.345 44.8898C111.007 44.7663 112.459 43.7411 113.57 43.6842C114.728 43.6272 115.715 44.7474 116.921 44.8518C119.066 45.0416 121.25 44.8043 123.395 44.8898V15.4614H113.798ZM113.798 39.0705C113.798 40.3141 103.773 42.4785 104.143 34.2766C104.418 28.0492 108.899 29.1313 113.798 29.1503V39.0705Z" fill="white"/>
<path d="M154.902 28.8178C153.877 23.3878 139.609 23.3404 135.356 23.6441C134.473 23.7106 129.869 24.2612 129.65 24.4415C129.375 24.6694 129.014 28.3052 128.189 29.1406C131.597 28.9697 142.532 27.3369 144.915 29.0836C145.504 29.5203 145.504 31.0107 145.323 31.2006C144.46 32.0929 126.48 29.0647 126.081 38.3963C125.768 45.9147 136.315 45.1648 141.498 44.8325C142.798 44.7566 144.061 43.7314 145.096 43.6839C146.254 43.6269 147.241 44.7661 148.447 44.8515C151.048 45.0509 153.687 44.7946 156.288 44.88C153.516 39.9436 155.842 33.8207 154.902 28.8178ZM144.925 40.1715C143.396 41.2632 136.428 41.2252 135.773 38.9848C136.134 34.3428 141.877 35.3395 145.323 35.3015C145.105 36.5167 145.874 39.4975 144.925 40.1715Z" fill="white"/>
<path d="M78.5112 23.6156C59.174 23.3972 57.3608 43.3135 75.7393 44.9084C78.5492 45.1552 86.8651 45.3546 88.7637 43.5034C89.2668 43.0098 91.6401 39.1271 89.5896 39.5258C84.3589 40.5511 75.426 42.4877 72.673 36.6779H86.7227C87.3017 36.6779 91.2698 33.2035 91.5451 32.5485C93.7475 27.2893 82.4319 23.663 78.5112 23.6156ZM72.673 32.5675C72.6256 25.9129 83.0204 26.2261 83.6374 32.5675H72.673Z" fill="white"/>
<path d="M10.6563 24.3564C11.1119 24.4324 12.0802 25.1063 12.403 25.5335C14.8521 28.7896 17.083 34.9411 18.8772 38.7383C20.1208 37.0011 25.3894 24.964 26.1773 24.4703C27.2595 23.7963 32.5471 24.7266 34.2938 24.3659L24.3736 44.2158C23.2914 45.1746 14.463 45.241 12.8492 44.7569C10.2196 43.969 4.19151 26.9195 0.726562 24.3564C3.78331 24.7077 7.75136 23.8723 10.6657 24.3564H10.6563Z" fill="white"/>
<path d="M54.8558 0.406055C53.7262 6.1873 51.4288 9.79467 47.3278 13.7817C45.752 15.3196 44.5844 14.5032 45.2679 18.196C42.0402 17.5505 39.591 17.5599 36.3634 18.196C38.0816 14.6171 34.8255 14.5507 32.9079 12.4147C30.5821 9.84213 27.6299 4.94373 27.44 1.43132C27.3831 0.33962 27.3166 0.263669 28.4652 0.415557C33.5819 1.07057 37.1229 4.84879 41.4137 7.17458C44.9546 3.48179 49.7296 0.909184 54.8748 0.406055H54.8558Z" fill="white"/>
<path d="M59.66 44.8901H50.7461V20.9392C54.0497 19.5817 56.6697 16.1547 59.66 14.0947V44.8901Z" fill="white"/>
<path d="M45.2675 24.356H36.3535V44.8893H45.2675V24.356Z" fill="white"/>
<path d="M153.544 15.4616C153.202 16.297 153.041 19.1639 152.728 19.4676C151.997 20.1701 150.411 18.1956 150.468 22.98C147.601 19.61 148.294 14.5028 153.544 15.4616Z" fill="white"/>
</svg>
