<svg width="150" height="56" viewBox="0 0 150 56" fill="none" xmlns="http://www.w3.org/2000/svg">
<g clip-path="url(#clip0_2001_680)">
<path d="M9.57093 22.5532C9.34321 22.7689 10.8889 24.7765 11.1201 25.0305C12.8935 26.958 15.2915 27.9775 17.8861 28.1132C22.2989 28.3463 27.2432 28.1271 31.6802 28.0192C32.1977 28.0053 32.7222 28.0819 33.2328 28.0192C33.3122 28.0158 33.2846 28.1445 33.2604 28.2176C33.0292 28.8752 31.2558 30.8932 30.6934 31.4499C21.4674 40.5344 5.7791 37.1038 1.29376 24.94C-3.90923 10.8313 8.96368 -2.95386 23.2754 1.24223C31.7526 3.72648 37.6629 13.0233 35.7515 21.8817C35.7239 22.0035 35.6031 22.5567 35.472 22.5567H9.57093V22.5532ZM26.6394 14.5681C26.2357 13.3886 25.2903 12.1848 24.3518 11.3567C19.5663 7.14319 12.0793 8.79588 9.48467 14.5681H26.6394Z" fill="white"/>
<path d="M75.0877 0.587891L61.5661 18.7013L74.7427 36.6165H62.4149C60.2343 33.412 57.9019 30.3084 55.6455 27.1527L55.3487 27.3719L48.3206 36.6165H36.3792L49.7386 19.0388L36.293 0.587891H48.2343L55.4454 10.6014C55.5489 10.8067 55.7386 10.7893 55.8663 10.6154L62.9738 0.587891H75.0842H75.0877Z" fill="white"/>
<path d="M110.001 11.962C103.777 -4.26915 80.4703 -3.90382 74.9154 12.5709C73.9493 15.4344 73.6595 17.9464 74.0528 20.9909C74.3633 23.3986 75.0672 25.2461 76.2092 27.3267C83.2995 40.2386 101.627 40.1272 108.88 27.4137C109.973 25.5001 110.733 23.4577 111.036 21.2518C111.467 18.1135 111.133 14.909 110.001 11.962ZM95.9482 27.2398C94.3714 27.9252 91.9838 28.0679 90.3277 27.6503C89.9792 27.5633 89.1132 27.1563 88.8786 27.1528C88.1437 26.7213 87.4157 26.2412 86.7705 25.6775C85.4732 24.5398 84.3035 22.6749 83.8792 20.9909C83.1857 18.2248 83.8171 15.0551 85.4318 12.7414C88.675 8.09991 95.4272 7.80417 99.1397 12.049C101.213 14.4219 101.99 18.2213 101.12 21.2518C100.409 23.7326 98.3116 26.2168 95.9482 27.2398Z" fill="url(#paint0_linear_2001_680)"/>
<path d="M149.741 20.4688C149.744 23.0157 149.744 25.5626 149.741 28.1095C149.737 30.886 149.744 33.666 149.741 36.4425H140.173C140.17 33.6381 140.177 30.8268 140.173 28.0225C140.17 25.5069 140.18 22.9844 140.173 20.4688C140.166 17.9672 140.339 15.1559 140.177 12.696C140.166 12.5186 140.121 12.0106 140.087 11.8749C139.728 10.4657 137.482 8.53471 135.95 8.66344H126.034C125.937 9.42194 126.037 10.5458 126.034 11.353C126.02 14.3904 126.037 17.4314 126.034 20.4688C126.034 23.0436 126.037 25.6217 126.034 28.1965C126.031 30.9451 126.037 33.6973 126.034 36.4425H116.466C116.463 33.6973 116.47 30.9451 116.466 28.1965C116.463 25.6217 116.466 23.0436 116.466 20.4688C116.463 17.4627 116.463 14.4496 116.466 11.44C116.47 7.82492 116.463 4.20293 116.466 0.587891H137.548C138.99 0.685312 140.315 0.775775 141.726 1.10979C142.164 1.21417 142.65 1.42641 143.102 1.54471C143.175 1.56211 143.285 1.52731 143.361 1.54471C143.309 1.78478 143.541 1.74303 143.706 1.80566C144.797 2.19883 146.104 3.18 146.894 4.1055C147.974 5.36851 149.415 7.61288 149.684 9.24817C149.722 9.46041 149.703 11.0398 149.741 11.092C149.755 11.2938 149.741 11.4991 149.741 11.7009C149.775 14.6201 149.737 17.5497 149.741 20.4688Z" fill="url(#paint1_linear_2001_680)"/>
<path d="M76.1231 55.9794C75.7366 55.9307 74.8154 55.628 74.4531 55.447C73.349 54.8938 72.5934 53.7874 72.3312 52.594H73.6665C73.7389 52.594 74.3462 53.6099 74.5394 53.8013C75.3537 54.6085 76.6233 54.7512 77.6929 54.4798C79.2076 54.0971 79.6182 52.7088 79.6561 51.2927L78.7384 52.2321C75.0811 54.1388 71.1857 51.0248 72.2001 46.9505C73.0351 43.5894 77.3341 42.5143 79.6561 45.0403V43.826H81.0362V52.0303C81.0362 54.2432 79.2317 55.7915 77.1581 55.9794C76.889 56.0037 76.3818 56.0107 76.1231 55.9794ZM75.8401 45.0612C72.5762 45.5727 72.7384 51.1883 76.2507 51.4632C80.7706 51.8146 80.8016 44.2853 75.8401 45.0612Z" fill="white"/>
<path d="M12.7591 46.4738V52.594H11.379V47.1662C11.379 46.8113 11.1167 46.0424 10.8994 45.7397C10.1576 44.6959 8.19781 44.7863 7.51466 45.8788C7.45256 45.9797 7.15584 46.6791 7.15584 46.7348V52.594H5.68948V46.9957C5.68948 46.6965 5.33755 45.8962 5.13399 45.6457C4.52329 44.9011 3.09143 44.8211 2.33582 45.35C1.95975 45.6109 1.46636 46.4634 1.46636 46.9087V52.594H0V43.826C0.217366 43.8643 1.41461 43.7738 1.46636 43.826C1.51466 43.8747 1.39735 44.4071 1.50776 44.5184C2.88097 43.0919 5.41691 43.4259 6.42438 45.1273C7.86314 42.9736 11.479 43.1232 12.4899 45.6179C12.5382 45.7397 12.7591 46.4077 12.7591 46.4738Z" fill="white"/>
<path d="M100.82 52.42C100.941 52.4548 101.248 53.0776 101.382 53.2411C102.231 54.2815 103.183 54.5633 104.519 54.4067C106.14 54.2153 106.934 52.7192 106.768 51.2022C104.788 53.8744 100.582 52.6949 99.5054 49.7514C97.8148 45.1412 103.349 41.2722 106.768 44.8664C106.903 44.6228 106.692 43.8295 106.892 43.6903C107.134 43.6521 108.131 43.579 108.238 43.7321C108.197 46.1607 108.421 48.7493 108.279 51.164C108.152 53.3316 107.427 55.2348 105.105 55.6941C102.573 56.1951 100.085 55.0747 99.4813 52.42C99.8401 52.4861 100.509 52.3295 100.817 52.42H100.82ZM103.083 44.8872C99.8505 45.3952 99.9333 50.7499 103.101 51.2509C108.007 52.0303 108.048 44.1044 103.083 44.8872Z" fill="white"/>
<path d="M96.0345 44.8664C96.0794 44.6193 95.9413 43.8121 96.1173 43.6903C96.3761 43.6625 97.4077 43.5372 97.4905 43.7947L97.4215 52.4687H96.1173C95.9206 52.3295 96.1311 51.5363 95.9931 51.2927C93.747 53.9509 89.2271 52.6009 88.4232 49.2782C87.3053 44.6646 92.7671 41.5053 96.0345 44.8664ZM92.3082 44.8872C88.9718 45.3465 88.9373 50.6769 92.2392 51.2509C97.18 52.1103 97.3456 44.1948 92.3082 44.8872Z" fill="white"/>
<path d="M111.468 48.5997C111.726 51.164 114.963 52.2147 116.76 50.4124C116.947 50.2245 117.398 49.3791 117.461 49.3791H118.882C117.706 53.4742 111.978 53.8396 110.36 49.8453C108.604 45.51 113.427 41.6654 117.236 44.3966C117.878 44.8559 119.055 46.3659 119.055 47.1662V48.4675C119.055 48.4675 118.934 48.5962 118.927 48.5962H111.471L111.468 48.5997ZM117.588 47.2984C116.819 44.0731 112.171 44 111.554 47.2984H117.588Z" fill="white"/>
<path d="M41.724 48.7737C42.0483 51.4353 45.4296 52.42 47.1581 50.3811C47.2858 50.2315 47.6653 49.553 47.7171 49.553H49.1386C47.9897 53.3838 42.7901 54.0031 40.8476 50.4785C38.3979 46.0354 43.7251 41.4844 47.7516 44.7411C48.314 45.1934 49.3111 46.6165 49.3111 47.3367V48.638C49.3111 48.638 49.1903 48.7667 49.1834 48.7667H41.7274L41.724 48.7737ZM47.8447 47.4689C47.1409 44.1983 42.3899 44.1253 41.8102 47.4689H47.8447Z" fill="white"/>
<path d="M22.3301 45.0403V43.826H23.7102V52.594H22.3301V51.4667C19.9942 53.9996 15.4537 52.7923 14.6843 49.3999C13.6285 44.755 19.0385 41.6967 22.3301 45.0403ZM18.4278 45.0612C14.8154 45.6701 15.3985 52.0338 19.6768 51.4423C23.5929 50.903 23.0236 44.2853 18.4278 45.0612Z" fill="white"/>
<path d="M33.364 40.8721V48.5997C33.9643 48.1682 36.8108 43.826 37.1144 43.826H38.7085L35.4376 48.2865L38.9672 52.594H37.1558C37.1558 52.594 37.1455 52.4513 37.073 52.3783C36.1725 51.4423 35.4445 50.308 34.5233 49.3825L33.3605 50.7256V52.5905H31.8942V40.8721H33.364Z" fill="white"/>
<path d="M69.4848 52.594H68.0184V47.1697C68.0184 46.8078 67.5664 45.8649 67.2973 45.5935C66.5313 44.8176 64.7199 44.835 63.9229 45.5622C63.6124 45.8475 63.1915 46.7696 63.1915 47.1662V52.5905H61.7251V43.9513C61.7251 43.9513 61.8459 43.8226 61.8528 43.8226H63.188C63.226 43.8226 63.1604 44.508 63.188 44.6019C63.5503 44.4454 63.7849 44.1531 64.161 43.9791C65.6895 43.2763 67.8217 43.6347 68.774 45.096C69.0362 45.4961 69.4779 46.6234 69.4779 47.0792V52.5905L69.4848 52.594Z" fill="white"/>
<path d="M140.087 46.6025H138.58C138.514 46.6025 137.979 45.7884 137.762 45.604C135.647 43.7947 132.383 45.4126 132.5 48.2135C132.607 50.8195 135.678 52.2808 137.676 50.6421C137.876 50.4785 138.514 49.6435 138.58 49.6435H140.087C139.663 50.8543 138.549 52.0477 137.31 52.4444C133.597 53.6378 129.985 50.3046 131.317 46.4947C132.721 42.4691 138.838 42.4969 140.087 46.6025Z" fill="white"/>
<path d="M128.795 52.42H127.328V47.1662C127.328 46.867 126.956 45.9171 126.762 45.6527C125.831 44.3688 123.26 44.6054 122.67 46.2059C122.57 46.4738 122.415 47.2497 122.415 47.5107V52.4165H121.035V43.7356H122.415C122.336 44.9359 122.581 44.2818 123.133 43.9791C123.726 43.6555 124.458 43.4572 125.134 43.4711C129.837 43.5616 128.633 49.2747 128.795 52.42Z" fill="white"/>
<path d="M143.275 43.7356L145.818 50.0749L148.447 43.7356H150L145.087 55.454H143.62C143.872 54.2536 144.669 53.1611 144.911 51.9468L141.806 44.1253L141.723 43.7321H143.275V43.7356Z" fill="white"/>
<path d="M53.448 40.8721V43.8226H55.3456V45.2143H53.448V52.594H52.0713V45.2143H50.2599V43.8226H52.0713V40.8721H53.448Z" fill="white"/>
<path d="M30.1725 43.6521V44.9986C30.0276 45.2073 29.7619 45.0925 29.548 45.1482C28.958 45.3048 28.4094 45.5553 28.0886 46.1085C27.9954 46.2685 27.7608 46.9296 27.7608 47.0827V52.594H26.2944V43.9548C26.2944 43.9548 26.4152 43.826 26.4221 43.826H27.7573C27.7953 43.826 27.6952 44.5115 27.7987 44.6054C28.3611 43.8887 29.2892 43.6242 30.1691 43.6521H30.1725Z" fill="white"/>
<path d="M58.8821 43.8226V52.5905H57.4158V43.9513C57.4158 43.9513 57.5365 43.8226 57.5434 43.8226H58.8821Z" fill="white"/>
<path d="M58.8821 40.8721H57.4158V43.1302H58.8821V40.8721Z" fill="white"/>
</g>
<defs>
<linearGradient id="paint0_linear_2001_680" x1="92.5502" y1="-0.000976563" x2="92.5502" y2="36.9798" gradientUnits="userSpaceOnUse">
<stop stop-color="#15AD49"/>
<stop offset="1" stop-color="#76F8A2"/>
</linearGradient>
<linearGradient id="paint1_linear_2001_680" x1="133.11" y1="0.587891" x2="133.11" y2="36.4425" gradientUnits="userSpaceOnUse">
<stop stop-color="#15AD49"/>
<stop offset="1" stop-color="#76F8A2"/>
</linearGradient>
<clipPath id="clip0_2001_680">
<rect width="150" height="56" fill="white"/>
</clipPath>
</defs>
</svg>
